<mxfile host="app.diagrams.net" modified="2024-01-22T08:55:27.480Z" agent="Mozilla/5.0 (Windows NT 10.0; Win64; x64) AppleWebKit/537.36 (KHTML, like Gecko) Chrome/120.0.0.0 Safari/537.36" etag="ef6yTe0ePFsc1yMrWIT-" version="22.1.21" type="github">
  <diagram name="Page-1" id="S0RyMMKHgEOpjeWuO68h">
    <mxGraphModel dx="880" dy="478" grid="1" gridSize="10" guides="1" tooltips="1" connect="1" arrows="1" fold="1" page="1" pageScale="1" pageWidth="850" pageHeight="1100" math="0" shadow="0">
      <root>
        <mxCell id="0" />
        <mxCell id="1" parent="0" />
        <mxCell id="6GuKSgrd6_mruViG83xe-14" style="rounded=0;orthogonalLoop=1;jettySize=auto;html=1;entryX=0;entryY=0.5;entryDx=0;entryDy=0;endArrow=none;endFill=0;exitX=0.5;exitY=0.5;exitDx=0;exitDy=0;exitPerimeter=0;" edge="1" parent="1" source="6GuKSgrd6_mruViG83xe-1" target="6GuKSgrd6_mruViG83xe-7">
          <mxGeometry relative="1" as="geometry" />
        </mxCell>
        <mxCell id="6GuKSgrd6_mruViG83xe-15" style="rounded=0;orthogonalLoop=1;jettySize=auto;html=1;entryX=0;entryY=0.5;entryDx=0;entryDy=0;endArrow=none;endFill=0;exitX=0.5;exitY=0.5;exitDx=0;exitDy=0;exitPerimeter=0;" edge="1" parent="1" source="6GuKSgrd6_mruViG83xe-1" target="6GuKSgrd6_mruViG83xe-8">
          <mxGeometry relative="1" as="geometry" />
        </mxCell>
        <mxCell id="6GuKSgrd6_mruViG83xe-16" style="rounded=0;orthogonalLoop=1;jettySize=auto;html=1;entryX=0;entryY=0.5;entryDx=0;entryDy=0;endArrow=none;endFill=0;exitX=0.5;exitY=0.5;exitDx=0;exitDy=0;exitPerimeter=0;" edge="1" parent="1" source="6GuKSgrd6_mruViG83xe-1" target="6GuKSgrd6_mruViG83xe-11">
          <mxGeometry relative="1" as="geometry" />
        </mxCell>
        <mxCell id="6GuKSgrd6_mruViG83xe-1" value="Pengunjung" style="shape=umlActor;verticalLabelPosition=bottom;verticalAlign=top;html=1;outlineConnect=0;" vertex="1" parent="1">
          <mxGeometry x="200" y="270" width="30" height="60" as="geometry" />
        </mxCell>
        <mxCell id="6GuKSgrd6_mruViG83xe-18" style="rounded=0;orthogonalLoop=1;jettySize=auto;html=1;entryX=1;entryY=0.5;entryDx=0;entryDy=0;endArrow=none;endFill=0;exitX=0.5;exitY=0.5;exitDx=0;exitDy=0;exitPerimeter=0;" edge="1" parent="1" source="6GuKSgrd6_mruViG83xe-2" target="6GuKSgrd6_mruViG83xe-8">
          <mxGeometry relative="1" as="geometry">
            <mxPoint x="620" y="300" as="sourcePoint" />
          </mxGeometry>
        </mxCell>
        <mxCell id="6GuKSgrd6_mruViG83xe-19" style="rounded=0;orthogonalLoop=1;jettySize=auto;html=1;entryX=1;entryY=0.5;entryDx=0;entryDy=0;endArrow=none;endFill=0;exitX=0.5;exitY=0.5;exitDx=0;exitDy=0;exitPerimeter=0;" edge="1" parent="1" source="6GuKSgrd6_mruViG83xe-2" target="6GuKSgrd6_mruViG83xe-11">
          <mxGeometry relative="1" as="geometry" />
        </mxCell>
        <mxCell id="6GuKSgrd6_mruViG83xe-21" style="rounded=0;orthogonalLoop=1;jettySize=auto;html=1;entryX=1;entryY=0.5;entryDx=0;entryDy=0;endArrow=none;endFill=0;exitX=0.5;exitY=0.5;exitDx=0;exitDy=0;exitPerimeter=0;" edge="1" parent="1" source="6GuKSgrd6_mruViG83xe-2" target="6GuKSgrd6_mruViG83xe-9">
          <mxGeometry relative="1" as="geometry" />
        </mxCell>
        <mxCell id="6GuKSgrd6_mruViG83xe-22" style="rounded=0;orthogonalLoop=1;jettySize=auto;html=1;entryX=1;entryY=0.5;entryDx=0;entryDy=0;endArrow=none;endFill=0;exitX=0.5;exitY=0.5;exitDx=0;exitDy=0;exitPerimeter=0;" edge="1" parent="1" source="6GuKSgrd6_mruViG83xe-2" target="6GuKSgrd6_mruViG83xe-20">
          <mxGeometry relative="1" as="geometry" />
        </mxCell>
        <mxCell id="6GuKSgrd6_mruViG83xe-23" style="rounded=0;orthogonalLoop=1;jettySize=auto;html=1;entryX=1;entryY=0.5;entryDx=0;entryDy=0;endArrow=none;endFill=0;exitX=0.5;exitY=0.5;exitDx=0;exitDy=0;exitPerimeter=0;" edge="1" parent="1" source="6GuKSgrd6_mruViG83xe-2" target="6GuKSgrd6_mruViG83xe-10">
          <mxGeometry relative="1" as="geometry" />
        </mxCell>
        <mxCell id="6GuKSgrd6_mruViG83xe-2" value="Pustakawan" style="shape=umlActor;verticalLabelPosition=bottom;verticalAlign=top;html=1;outlineConnect=0;" vertex="1" parent="1">
          <mxGeometry x="610" y="270" width="30" height="60" as="geometry" />
        </mxCell>
        <mxCell id="6GuKSgrd6_mruViG83xe-6" value="Perpus Digital" style="shape=umlFrame;whiteSpace=wrap;html=1;pointerEvents=0;width=100;height=20;" vertex="1" parent="1">
          <mxGeometry x="260" y="40" width="320" height="560" as="geometry" />
        </mxCell>
        <mxCell id="6GuKSgrd6_mruViG83xe-7" value="Mengisi Kunjungan" style="ellipse;whiteSpace=wrap;html=1;" vertex="1" parent="1">
          <mxGeometry x="350" y="80" width="140" height="70" as="geometry" />
        </mxCell>
        <mxCell id="6GuKSgrd6_mruViG83xe-8" value="Melihat Riwayat Kunjungan" style="ellipse;whiteSpace=wrap;html=1;" vertex="1" parent="1">
          <mxGeometry x="350" y="160" width="140" height="70" as="geometry" />
        </mxCell>
        <mxCell id="6GuKSgrd6_mruViG83xe-9" value="Merekap Kunjungan Bulanan" style="ellipse;whiteSpace=wrap;html=1;" vertex="1" parent="1">
          <mxGeometry x="350" y="430" width="140" height="70" as="geometry" />
        </mxCell>
        <mxCell id="6GuKSgrd6_mruViG83xe-10" value="Membuat Laporan Statistik" style="ellipse;whiteSpace=wrap;html=1;" vertex="1" parent="1">
          <mxGeometry x="350" y="515" width="140" height="70" as="geometry" />
        </mxCell>
        <mxCell id="6GuKSgrd6_mruViG83xe-11" value="Mencari Buku" style="ellipse;whiteSpace=wrap;html=1;" vertex="1" parent="1">
          <mxGeometry x="350" y="250" width="140" height="70" as="geometry" />
        </mxCell>
        <mxCell id="6GuKSgrd6_mruViG83xe-20" value="Menambah Buku" style="ellipse;whiteSpace=wrap;html=1;" vertex="1" parent="1">
          <mxGeometry x="350" y="340" width="140" height="70" as="geometry" />
        </mxCell>
      </root>
    </mxGraphModel>
  </diagram>
</mxfile>
